<svg width="21" height="15" viewBox="0 0 21 15" fill="none" xmlns="http://www.w3.org/2000/svg">
<path d="M13.6416 14.16C13.1216 14.16 12.7682 14.0267 12.5816 13.76C12.3949 13.48 12.3016 13.1333 12.3016 12.72C12.3016 12.3467 12.3549 11.9267 12.4616 11.46C12.5816 10.8867 12.7949 10.2067 13.1016 9.42C13.4216 8.63333 13.7749 7.81333 14.1616 6.96C14.5616 6.09333 14.9549 5.26667 15.3416 4.48C15.7416 3.69333 16.0882 3.02 16.3816 2.46C16.2082 2.62 16.0282 2.78667 15.8416 2.96C15.6682 3.13333 15.4882 3.32667 15.3016 3.54C14.5282 4.40667 13.8216 5.23333 13.1816 6.02C12.5549 6.79333 11.9482 7.56 11.3616 8.32C10.7882 9.06667 10.1949 9.83333 9.58156 10.62C9.24823 11.06 8.98156 11.3933 8.78156 11.62C8.5949 11.8333 8.42156 11.98 8.26156 12.06C8.1149 12.1267 7.92823 12.16 7.70156 12.16C7.36823 12.16 6.98823 12.06 6.56156 11.86C6.74823 11.6333 6.8749 11.1467 6.94156 10.4C7.02156 9.65333 7.06156 8.8 7.06156 7.84C7.06156 6.86667 7.02823 5.86 6.96156 4.82C6.8949 3.78 6.7949 2.86 6.66156 2.06C6.58156 2.19333 6.4349 2.48667 6.22156 2.94C6.02156 3.39333 5.7749 3.95333 5.48156 4.62C5.20156 5.27333 4.90156 5.98667 4.58156 6.76C4.26156 7.52 3.94823 8.28667 3.64156 9.06C3.34823 9.82 3.08156 10.54 2.84156 11.22C2.6149 11.9 2.44156 12.4867 2.32156 12.98C2.20156 13.4733 2.16156 13.8133 2.20156 14H0.361563C0.654896 13.2533 0.988229 12.4267 1.36156 11.52C1.74823 10.6 2.14823 9.66 2.56156 8.7C2.9749 7.74 3.38156 6.80667 3.78156 5.9C4.1949 4.99333 4.56823 4.16667 4.90156 3.42C5.24823 2.66 5.5349 2.03333 5.76156 1.54C5.98823 1.04667 6.1349 0.739999 6.20156 0.619999C5.6149 0.606666 5.0149 0.666666 4.40156 0.799999C3.78823 0.92 3.2149 1.09333 2.68156 1.32C2.14823 1.54667 1.6949 1.80667 1.32156 2.1C0.961563 2.39333 0.728229 2.7 0.621563 3.02C0.608229 3.06 0.581563 3.08 0.541563 3.08C0.434896 3.08 0.381563 2.99333 0.381563 2.82C0.381563 2.79333 0.381563 2.76667 0.381563 2.74C0.394896 2.7 0.408229 2.66 0.421563 2.62C0.541563 2.27333 0.688229 1.96667 0.861563 1.7C1.04823 1.43333 1.22823 1.20667 1.40156 1.02C1.84156 0.566666 2.3349 0.293333 2.88156 0.199999C3.42823 0.0933328 4.00823 0.0399997 4.62156 0.0399997H6.56156C6.8549 0.0399997 7.14156 0.0399997 7.42156 0.0399997C7.70156 0.0399997 7.94823 0.113333 8.16156 0.259999C8.3749 0.393332 8.5149 0.659999 8.58156 1.06C8.6349 1.34 8.68156 1.76667 8.72156 2.34C8.7749 2.9 8.8149 3.52667 8.84156 4.22C8.88156 4.91333 8.9149 5.6 8.94156 6.28C8.96823 6.96 8.98823 7.54667 9.00156 8.04C9.00156 8.06667 9.00156 8.14667 9.00156 8.28C9.0149 8.4 9.02156 8.55333 9.02156 8.74C9.02156 8.91333 9.0149 9.11333 9.00156 9.34C9.00156 9.55333 8.98823 9.76 8.96156 9.96C9.24156 9.61333 9.58823 9.18667 10.0016 8.68C10.4282 8.16 10.8882 7.6 11.3816 7C11.8749 6.38667 12.3749 5.77333 12.8816 5.16C13.3882 4.54667 13.8749 3.96 14.3416 3.4C14.8082 2.84 15.2149 2.35333 15.5616 1.94C15.9216 1.51333 16.1882 1.19333 16.3616 0.98C16.6682 0.633333 17.0549 0.393332 17.5216 0.259999C17.9882 0.113333 18.4549 0.0399997 18.9216 0.0399997H20.1616C19.8816 0.253333 19.5749 0.613332 19.2416 1.12C18.9082 1.62667 18.5816 2.17333 18.2616 2.76C17.9549 3.34667 17.6816 3.88 17.4416 4.36C17.0949 5.08 16.7416 5.86 16.3816 6.7C16.0216 7.54 15.7016 8.37333 15.4216 9.2C15.1416 10.0267 14.9349 10.7933 14.8016 11.5C14.7616 11.7133 14.7416 11.94 14.7416 12.18C14.7416 12.4733 14.7882 12.7333 14.8816 12.96C14.9882 13.1733 15.1749 13.28 15.4416 13.28C15.6549 13.28 15.9149 13.1933 16.2216 13.02H16.2416C16.2682 13.02 16.2882 13.0467 16.3016 13.1C16.3149 13.14 16.3082 13.1733 16.2816 13.2C16.0282 13.4667 15.6416 13.6933 15.1216 13.88C14.6016 14.0667 14.1082 14.16 13.6416 14.16Z" fill="white"/>
</svg>
