<?xml version="1.0" encoding="UTF-8" standalone="no"?>
<svg
   width="18"
   height="18"
   viewBox="0 0 24 24"
   version="1.1"
   id="svg11"
   sodipodi:docname="git-icon-black.svg"
   inkscape:version="1.2.2 (1:1.2.2+202212051552+b0a8486541)"
   xmlns:inkscape="http://www.inkscape.org/namespaces/inkscape"
   xmlns:sodipodi="http://sodipodi.sourceforge.net/DTD/sodipodi-0.dtd"
   xmlns="http://www.w3.org/2000/svg"
   xmlns:svg="http://www.w3.org/2000/svg">
  <sodipodi:namedview
     id="namedview13"
     pagecolor="#ffffff"
     bordercolor="#000000"
     borderopacity="0.25"
     inkscape:showpageshadow="2"
     inkscape:pageopacity="0.0"
     inkscape:pagecheckerboard="0"
     inkscape:deskcolor="#d1d1d1"
     inkscape:document-units="pt"
     showgrid="false"
     inkscape:zoom="19.599155"
     inkscape:cx="14.260819"
     inkscape:cy="3.2144242"
     inkscape:window-width="1452"
     inkscape:window-height="1053"
     inkscape:window-x="3300"
     inkscape:window-y="236"
     inkscape:window-maximized="0"
     inkscape:current-layer="svg11" />
  <defs
     id="defs5">
    <clipPath
       id="a">
      <path
         d="M 0,0.113 H 91.887 V 92 H 0 Z m 0,0"
         id="path2" />
    </clipPath>
  </defs>
  <g
     clip-path="url(#a)"
     id="g9"
     transform="matrix(0.25753237,0,0,0.25753237,0.16313868,0.1329052)">
    <path
       style="fill:#100f0d;fill-opacity:1;fill-rule:nonzero;stroke:none"
       d="M 90.156,41.965 50.036,1.848 a 5.913,5.913 0 0 0 -8.368,0 l -8.332,8.332 10.566,10.566 a 7.03,7.03 0 0 1 7.23,1.684 7.043,7.043 0 0 1 1.673,7.277 l 10.183,10.184 a 7.026,7.026 0 0 1 7.278,1.672 7.04,7.04 0 0 1 0,9.957 7.045,7.045 0 0 1 -9.961,0 7.038,7.038 0 0 1 -1.532,-7.66 l -9.5,-9.497 V 59.36 a 7.04,7.04 0 0 1 1.86,11.29 7.04,7.04 0 0 1 -9.957,0 7.04,7.04 0 0 1 0,-9.958 7.034,7.034 0 0 1 2.308,-1.539 V 33.926 a 7.001,7.001 0 0 1 -2.308,-1.535 7.049,7.049 0 0 1 -1.516,-7.7 L 29.242,14.273 1.734,41.777 a 5.918,5.918 0 0 0 0,8.371 L 41.855,90.27 a 5.92,5.92 0 0 0 8.368,0 L 90.156,50.336 a 5.925,5.925 0 0 0 0,-8.371"
       id="path7" />
  </g>
</svg>
